%TF.GenerationSoftware,KiCad,Pcbnew,(6.0.9)*%
%TF.CreationDate,2022-11-26T13:39:15+01:00*%
%TF.ProjectId,backbone,6261636b-626f-46e6-952e-6b696361645f,rev?*%
%TF.SameCoordinates,Original*%
%TF.FileFunction,Legend,Top*%
%TF.FilePolarity,Positive*%
%FSLAX46Y46*%
G04 Gerber Fmt 4.6, Leading zero omitted, Abs format (unit mm)*
G04 Created by KiCad (PCBNEW (6.0.9)) date 2022-11-26 13:39:15*
%MOMM*%
%LPD*%
G01*
G04 APERTURE LIST*
%ADD10C,0.120000*%
G04 APERTURE END LIST*
D10*
%TO.C,J1*%
X171570000Y-113830000D02*
X171570000Y-108630000D01*
X146050000Y-111230000D02*
X148650000Y-111230000D01*
X146050000Y-108630000D02*
X147380000Y-108630000D01*
X146050000Y-109960000D02*
X146050000Y-108630000D01*
X148650000Y-108630000D02*
X171570000Y-108630000D01*
X148650000Y-111230000D02*
X148650000Y-108630000D01*
X146050000Y-113830000D02*
X171570000Y-113830000D01*
X146050000Y-113830000D02*
X146050000Y-111230000D01*
%TO.C,J3*%
X148650000Y-78030000D02*
X148650000Y-75430000D01*
X146050000Y-76760000D02*
X146050000Y-75430000D01*
X146050000Y-80630000D02*
X146050000Y-78030000D01*
X148650000Y-75430000D02*
X171570000Y-75430000D01*
X146050000Y-80630000D02*
X171570000Y-80630000D01*
X146050000Y-78030000D02*
X148650000Y-78030000D01*
X146050000Y-75430000D02*
X147380000Y-75430000D01*
X171570000Y-80630000D02*
X171570000Y-75430000D01*
%TO.C,J2*%
X148650000Y-92030000D02*
X171570000Y-92030000D01*
X171570000Y-97230000D02*
X171570000Y-92030000D01*
X148650000Y-94630000D02*
X148650000Y-92030000D01*
X146050000Y-97230000D02*
X146050000Y-94630000D01*
X146050000Y-94630000D02*
X148650000Y-94630000D01*
X146050000Y-93360000D02*
X146050000Y-92030000D01*
X146050000Y-97230000D02*
X171570000Y-97230000D01*
X146050000Y-92030000D02*
X147380000Y-92030000D01*
%TD*%
M02*
