%TF.GenerationSoftware,KiCad,Pcbnew,(6.0.9)*%
%TF.CreationDate,2022-11-26T13:39:16+01:00*%
%TF.ProjectId,backbone,6261636b-626f-46e6-952e-6b696361645f,rev?*%
%TF.SameCoordinates,Original*%
%TF.FileFunction,Soldermask,Top*%
%TF.FilePolarity,Negative*%
%FSLAX46Y46*%
G04 Gerber Fmt 4.6, Leading zero omitted, Abs format (unit mm)*
G04 Created by KiCad (PCBNEW (6.0.9)) date 2022-11-26 13:39:16*
%MOMM*%
%LPD*%
G01*
G04 APERTURE LIST*
%ADD10C,3.200000*%
%ADD11R,1.700000X1.700000*%
%ADD12O,1.700000X1.700000*%
G04 APERTURE END LIST*
D10*
%TO.C,H4*%
X174000000Y-73000000D03*
%TD*%
D11*
%TO.C,J1*%
X147380000Y-109960000D03*
D12*
X147380000Y-112500000D03*
X149920000Y-109960000D03*
X149920000Y-112500000D03*
X152460000Y-109960000D03*
X152460000Y-112500000D03*
X155000000Y-109960000D03*
X155000000Y-112500000D03*
X157540000Y-109960000D03*
X157540000Y-112500000D03*
X160080000Y-109960000D03*
X160080000Y-112500000D03*
X162620000Y-109960000D03*
X162620000Y-112500000D03*
X165160000Y-109960000D03*
X165160000Y-112500000D03*
X167700000Y-109960000D03*
X167700000Y-112500000D03*
X170240000Y-109960000D03*
X170240000Y-112500000D03*
%TD*%
D10*
%TO.C,H1*%
X174000000Y-116000000D03*
%TD*%
%TO.C,H3*%
X144000000Y-73000000D03*
%TD*%
%TO.C,H2*%
X144000000Y-116000000D03*
%TD*%
D11*
%TO.C,J3*%
X147380000Y-76760000D03*
D12*
X147380000Y-79300000D03*
X149920000Y-76760000D03*
X149920000Y-79300000D03*
X152460000Y-76760000D03*
X152460000Y-79300000D03*
X155000000Y-76760000D03*
X155000000Y-79300000D03*
X157540000Y-76760000D03*
X157540000Y-79300000D03*
X160080000Y-76760000D03*
X160080000Y-79300000D03*
X162620000Y-76760000D03*
X162620000Y-79300000D03*
X165160000Y-76760000D03*
X165160000Y-79300000D03*
X167700000Y-76760000D03*
X167700000Y-79300000D03*
X170240000Y-76760000D03*
X170240000Y-79300000D03*
%TD*%
D11*
%TO.C,J2*%
X147380000Y-93360000D03*
D12*
X147380000Y-95900000D03*
X149920000Y-93360000D03*
X149920000Y-95900000D03*
X152460000Y-93360000D03*
X152460000Y-95900000D03*
X155000000Y-93360000D03*
X155000000Y-95900000D03*
X157540000Y-93360000D03*
X157540000Y-95900000D03*
X160080000Y-93360000D03*
X160080000Y-95900000D03*
X162620000Y-93360000D03*
X162620000Y-95900000D03*
X165160000Y-93360000D03*
X165160000Y-95900000D03*
X167700000Y-93360000D03*
X167700000Y-95900000D03*
X170240000Y-93360000D03*
X170240000Y-95900000D03*
%TD*%
M02*
