%TF.GenerationSoftware,KiCad,Pcbnew,(6.0.9)*%
%TF.CreationDate,2022-11-26T13:39:16+01:00*%
%TF.ProjectId,backbone,6261636b-626f-46e6-952e-6b696361645f,rev?*%
%TF.SameCoordinates,Original*%
%TF.FileFunction,Legend,Bot*%
%TF.FilePolarity,Positive*%
%FSLAX46Y46*%
G04 Gerber Fmt 4.6, Leading zero omitted, Abs format (unit mm)*
G04 Created by KiCad (PCBNEW (6.0.9)) date 2022-11-26 13:39:16*
%MOMM*%
%LPD*%
G01*
G04 APERTURE LIST*
%ADD10C,0.300000*%
G04 APERTURE END LIST*
D10*
X166952380Y-101247142D02*
X166666666Y-101342380D01*
X166571428Y-101437619D01*
X166476190Y-101628095D01*
X166476190Y-101913809D01*
X166571428Y-102104285D01*
X166666666Y-102199523D01*
X166857142Y-102294761D01*
X167619047Y-102294761D01*
X167619047Y-100294761D01*
X166952380Y-100294761D01*
X166761904Y-100390000D01*
X166666666Y-100485238D01*
X166571428Y-100675714D01*
X166571428Y-100866190D01*
X166666666Y-101056666D01*
X166761904Y-101151904D01*
X166952380Y-101247142D01*
X167619047Y-101247142D01*
X165714285Y-101723333D02*
X164761904Y-101723333D01*
X165904761Y-102294761D02*
X165238095Y-100294761D01*
X164571428Y-102294761D01*
X162761904Y-102104285D02*
X162857142Y-102199523D01*
X163142857Y-102294761D01*
X163333333Y-102294761D01*
X163619047Y-102199523D01*
X163809523Y-102009047D01*
X163904761Y-101818571D01*
X164000000Y-101437619D01*
X164000000Y-101151904D01*
X163904761Y-100770952D01*
X163809523Y-100580476D01*
X163619047Y-100390000D01*
X163333333Y-100294761D01*
X163142857Y-100294761D01*
X162857142Y-100390000D01*
X162761904Y-100485238D01*
X161904761Y-102294761D02*
X161904761Y-100294761D01*
X160761904Y-102294761D02*
X161619047Y-101151904D01*
X160761904Y-100294761D02*
X161904761Y-101437619D01*
X159904761Y-101532857D02*
X158380952Y-101532857D01*
X156761904Y-101247142D02*
X156476190Y-101342380D01*
X156380952Y-101437619D01*
X156285714Y-101628095D01*
X156285714Y-101913809D01*
X156380952Y-102104285D01*
X156476190Y-102199523D01*
X156666666Y-102294761D01*
X157428571Y-102294761D01*
X157428571Y-100294761D01*
X156761904Y-100294761D01*
X156571428Y-100390000D01*
X156476190Y-100485238D01*
X156380952Y-100675714D01*
X156380952Y-100866190D01*
X156476190Y-101056666D01*
X156571428Y-101151904D01*
X156761904Y-101247142D01*
X157428571Y-101247142D01*
X155047619Y-100294761D02*
X154666666Y-100294761D01*
X154476190Y-100390000D01*
X154285714Y-100580476D01*
X154190476Y-100961428D01*
X154190476Y-101628095D01*
X154285714Y-102009047D01*
X154476190Y-102199523D01*
X154666666Y-102294761D01*
X155047619Y-102294761D01*
X155238095Y-102199523D01*
X155428571Y-102009047D01*
X155523809Y-101628095D01*
X155523809Y-100961428D01*
X155428571Y-100580476D01*
X155238095Y-100390000D01*
X155047619Y-100294761D01*
X153333333Y-102294761D02*
X153333333Y-100294761D01*
X152190476Y-102294761D01*
X152190476Y-100294761D01*
X151238095Y-101247142D02*
X150571428Y-101247142D01*
X150285714Y-102294761D02*
X151238095Y-102294761D01*
X151238095Y-100294761D01*
X150285714Y-100294761D01*
X160619047Y-103514761D02*
X159952380Y-105514761D01*
X159285714Y-103514761D01*
X157571428Y-105514761D02*
X158714285Y-105514761D01*
X158142857Y-105514761D02*
X158142857Y-103514761D01*
X158333333Y-103800476D01*
X158523809Y-103990952D01*
X158714285Y-104086190D01*
X173380952Y-85294761D02*
X173380952Y-83294761D01*
X172714285Y-84723333D01*
X172047619Y-83294761D01*
X172047619Y-85294761D01*
X171190476Y-84723333D02*
X170238095Y-84723333D01*
X171380952Y-85294761D02*
X170714285Y-83294761D01*
X170047619Y-85294761D01*
X169380952Y-85294761D02*
X169380952Y-83294761D01*
X168904761Y-83294761D01*
X168619047Y-83390000D01*
X168428571Y-83580476D01*
X168333333Y-83770952D01*
X168238095Y-84151904D01*
X168238095Y-84437619D01*
X168333333Y-84818571D01*
X168428571Y-85009047D01*
X168619047Y-85199523D01*
X168904761Y-85294761D01*
X169380952Y-85294761D01*
X167380952Y-84247142D02*
X166714285Y-84247142D01*
X166428571Y-85294761D02*
X167380952Y-85294761D01*
X167380952Y-83294761D01*
X166428571Y-83294761D01*
X163380952Y-84247142D02*
X163095238Y-84342380D01*
X163000000Y-84437619D01*
X162904761Y-84628095D01*
X162904761Y-84913809D01*
X163000000Y-85104285D01*
X163095238Y-85199523D01*
X163285714Y-85294761D01*
X164047619Y-85294761D01*
X164047619Y-83294761D01*
X163380952Y-83294761D01*
X163190476Y-83390000D01*
X163095238Y-83485238D01*
X163000000Y-83675714D01*
X163000000Y-83866190D01*
X163095238Y-84056666D01*
X163190476Y-84151904D01*
X163380952Y-84247142D01*
X164047619Y-84247142D01*
X161666666Y-84342380D02*
X161666666Y-85294761D01*
X162333333Y-83294761D02*
X161666666Y-84342380D01*
X161000000Y-83294761D01*
X158142857Y-84247142D02*
X157857142Y-84342380D01*
X157761904Y-84437619D01*
X157666666Y-84628095D01*
X157666666Y-84913809D01*
X157761904Y-85104285D01*
X157857142Y-85199523D01*
X158047619Y-85294761D01*
X158809523Y-85294761D01*
X158809523Y-83294761D01*
X158142857Y-83294761D01*
X157952380Y-83390000D01*
X157857142Y-83485238D01*
X157761904Y-83675714D01*
X157761904Y-83866190D01*
X157857142Y-84056666D01*
X157952380Y-84151904D01*
X158142857Y-84247142D01*
X158809523Y-84247142D01*
X156904761Y-84723333D02*
X155952380Y-84723333D01*
X157095238Y-85294761D02*
X156428571Y-83294761D01*
X155761904Y-85294761D01*
X155190476Y-85199523D02*
X154904761Y-85294761D01*
X154428571Y-85294761D01*
X154238095Y-85199523D01*
X154142857Y-85104285D01*
X154047619Y-84913809D01*
X154047619Y-84723333D01*
X154142857Y-84532857D01*
X154238095Y-84437619D01*
X154428571Y-84342380D01*
X154809523Y-84247142D01*
X155000000Y-84151904D01*
X155095238Y-84056666D01*
X155190476Y-83866190D01*
X155190476Y-83675714D01*
X155095238Y-83485238D01*
X155000000Y-83390000D01*
X154809523Y-83294761D01*
X154333333Y-83294761D01*
X154047619Y-83390000D01*
X153190476Y-84247142D02*
X152523809Y-84247142D01*
X152238095Y-85294761D02*
X153190476Y-85294761D01*
X153190476Y-83294761D01*
X152238095Y-83294761D01*
X151380952Y-85294761D02*
X151380952Y-83294761D01*
X150714285Y-84723333D01*
X150047619Y-83294761D01*
X150047619Y-85294761D01*
X149095238Y-84247142D02*
X148428571Y-84247142D01*
X148142857Y-85294761D02*
X149095238Y-85294761D01*
X149095238Y-83294761D01*
X148142857Y-83294761D01*
X147285714Y-85294761D02*
X147285714Y-83294761D01*
X146142857Y-85294761D01*
X146142857Y-83294761D01*
X145476190Y-83294761D02*
X144333333Y-83294761D01*
X144904761Y-85294761D02*
X144904761Y-83294761D01*
X171714285Y-88514761D02*
X171714285Y-86514761D01*
X170952380Y-86514761D01*
X170761904Y-86610000D01*
X170666666Y-86705238D01*
X170571428Y-86895714D01*
X170571428Y-87181428D01*
X170666666Y-87371904D01*
X170761904Y-87467142D01*
X170952380Y-87562380D01*
X171714285Y-87562380D01*
X168571428Y-88514761D02*
X169238095Y-87562380D01*
X169714285Y-88514761D02*
X169714285Y-86514761D01*
X168952380Y-86514761D01*
X168761904Y-86610000D01*
X168666666Y-86705238D01*
X168571428Y-86895714D01*
X168571428Y-87181428D01*
X168666666Y-87371904D01*
X168761904Y-87467142D01*
X168952380Y-87562380D01*
X169714285Y-87562380D01*
X167333333Y-86514761D02*
X166952380Y-86514761D01*
X166761904Y-86610000D01*
X166571428Y-86800476D01*
X166476190Y-87181428D01*
X166476190Y-87848095D01*
X166571428Y-88229047D01*
X166761904Y-88419523D01*
X166952380Y-88514761D01*
X167333333Y-88514761D01*
X167523809Y-88419523D01*
X167714285Y-88229047D01*
X167809523Y-87848095D01*
X167809523Y-87181428D01*
X167714285Y-86800476D01*
X167523809Y-86610000D01*
X167333333Y-86514761D01*
X165047619Y-86514761D02*
X165047619Y-87943333D01*
X165142857Y-88229047D01*
X165333333Y-88419523D01*
X165619047Y-88514761D01*
X165809523Y-88514761D01*
X164095238Y-87467142D02*
X163428571Y-87467142D01*
X163142857Y-88514761D02*
X164095238Y-88514761D01*
X164095238Y-86514761D01*
X163142857Y-86514761D01*
X161142857Y-88324285D02*
X161238095Y-88419523D01*
X161523809Y-88514761D01*
X161714285Y-88514761D01*
X162000000Y-88419523D01*
X162190476Y-88229047D01*
X162285714Y-88038571D01*
X162380952Y-87657619D01*
X162380952Y-87371904D01*
X162285714Y-86990952D01*
X162190476Y-86800476D01*
X162000000Y-86610000D01*
X161714285Y-86514761D01*
X161523809Y-86514761D01*
X161238095Y-86610000D01*
X161142857Y-86705238D01*
X160571428Y-86514761D02*
X159428571Y-86514761D01*
X160000000Y-88514761D02*
X160000000Y-86514761D01*
X157428571Y-86514761D02*
X156952380Y-88514761D01*
X156571428Y-87086190D01*
X156190476Y-88514761D01*
X155714285Y-86514761D01*
X155047619Y-87943333D02*
X154095238Y-87943333D01*
X155238095Y-88514761D02*
X154571428Y-86514761D01*
X153904761Y-88514761D01*
X153333333Y-88419523D02*
X153047619Y-88514761D01*
X152571428Y-88514761D01*
X152380952Y-88419523D01*
X152285714Y-88324285D01*
X152190476Y-88133809D01*
X152190476Y-87943333D01*
X152285714Y-87752857D01*
X152380952Y-87657619D01*
X152571428Y-87562380D01*
X152952380Y-87467142D01*
X153142857Y-87371904D01*
X153238095Y-87276666D01*
X153333333Y-87086190D01*
X153333333Y-86895714D01*
X153238095Y-86705238D01*
X153142857Y-86610000D01*
X152952380Y-86514761D01*
X152476190Y-86514761D01*
X152190476Y-86610000D01*
X151428571Y-88419523D02*
X151142857Y-88514761D01*
X150666666Y-88514761D01*
X150476190Y-88419523D01*
X150380952Y-88324285D01*
X150285714Y-88133809D01*
X150285714Y-87943333D01*
X150380952Y-87752857D01*
X150476190Y-87657619D01*
X150666666Y-87562380D01*
X151047619Y-87467142D01*
X151238095Y-87371904D01*
X151333333Y-87276666D01*
X151428571Y-87086190D01*
X151428571Y-86895714D01*
X151333333Y-86705238D01*
X151238095Y-86610000D01*
X151047619Y-86514761D01*
X150571428Y-86514761D01*
X150285714Y-86610000D01*
X149428571Y-86514761D02*
X149428571Y-88133809D01*
X149333333Y-88324285D01*
X149238095Y-88419523D01*
X149047619Y-88514761D01*
X148666666Y-88514761D01*
X148476190Y-88419523D01*
X148380952Y-88324285D01*
X148285714Y-88133809D01*
X148285714Y-86514761D01*
X147333333Y-88514761D02*
X147333333Y-86514761D01*
X146571428Y-86514761D01*
X146380952Y-86610000D01*
X146285714Y-86705238D01*
X146190476Y-86895714D01*
X146190476Y-87181428D01*
X146285714Y-87371904D01*
X146380952Y-87467142D01*
X146571428Y-87562380D01*
X147333333Y-87562380D01*
M02*
