M48
; DRILL file {KiCad (6.0.9)} date Sat Nov 26 13:39:17 2022
; FORMAT={-:-/ absolute / inch / decimal}
; #@! TF.CreationDate,2022-11-26T13:39:17+01:00
; #@! TF.GenerationSoftware,Kicad,Pcbnew,(6.0.9)
; #@! TF.FileFunction,Plated,1,2,PTH
FMAT,2
INCH
; #@! TA.AperFunction,Plated,PTH,ComponentDrill
T1C0.0394
%
G90
G05
T1
X5.8024Y-3.022
X5.8024Y-3.122
X5.8024Y-3.6756
X5.8024Y-3.7756
X5.8024Y-4.3291
X5.8024Y-4.4291
X5.9024Y-3.022
X5.9024Y-3.122
X5.9024Y-3.6756
X5.9024Y-3.7756
X5.9024Y-4.3291
X5.9024Y-4.4291
X6.0024Y-3.022
X6.0024Y-3.122
X6.0024Y-3.6756
X6.0024Y-3.7756
X6.0024Y-4.3291
X6.0024Y-4.4291
X6.1024Y-3.022
X6.1024Y-3.122
X6.1024Y-3.6756
X6.1024Y-3.7756
X6.1024Y-4.3291
X6.1024Y-4.4291
X6.2024Y-3.022
X6.2024Y-3.122
X6.2024Y-3.6756
X6.2024Y-3.7756
X6.2024Y-4.3291
X6.2024Y-4.4291
X6.3024Y-3.022
X6.3024Y-3.122
X6.3024Y-3.6756
X6.3024Y-3.7756
X6.3024Y-4.3291
X6.3024Y-4.4291
X6.4024Y-3.022
X6.4024Y-3.122
X6.4024Y-3.6756
X6.4024Y-3.7756
X6.4024Y-4.3291
X6.4024Y-4.4291
X6.5024Y-3.022
X6.5024Y-3.122
X6.5024Y-3.6756
X6.5024Y-3.7756
X6.5024Y-4.3291
X6.5024Y-4.4291
X6.6024Y-3.022
X6.6024Y-3.122
X6.6024Y-3.6756
X6.6024Y-3.7756
X6.6024Y-4.3291
X6.6024Y-4.4291
X6.7024Y-3.022
X6.7024Y-3.122
X6.7024Y-3.6756
X6.7024Y-3.7756
X6.7024Y-4.3291
X6.7024Y-4.4291
T0
M30
